<svg width="113" height="28" viewBox="0 0 113 28" fill="none" xmlns="http://www.w3.org/2000/svg">
<path d="M23.4029 7.29138H22.6332V1.71709H21.168V0.998946H24.8675V1.71709H23.4029V7.29138Z" fill="white"/>
<path d="M29.1965 3.53604V0.998849H29.966V7.29114H29.1965V4.27037H26.2587V7.29114H25.4902V0.998849H26.2587V3.53604H29.1965Z" fill="white"/>
<path d="M31.1611 0.999093H34.4753V1.71724H31.9296V3.47742H34.4017V4.19557H31.9296V6.57324H34.4753V7.29138H31.1611V0.999093Z" fill="white"/>
<path d="M41.5954 3.53604V0.998849H42.3639V7.29114H41.5954V4.27037H38.6576V7.29114H37.8879V0.998849H38.6576V3.53604H41.5954Z" fill="white"/>
<mask id="mask0_1462_249" style="mask-type:luminance" maskUnits="userSpaceOnUse" x="0" y="0" width="113" height="28">
<path d="M0 27.7224H112.192L112.114 2.47955e-05L0 0.080965V27.7224Z" fill="white"/>
</mask>
<g mask="url(#mask0_1462_249)">
<path d="M48.6757 4.29382C48.6757 2.90889 47.6613 1.74868 46.2124 1.74868C44.7636 1.74868 43.7493 2.90889 43.7493 4.29382C43.7493 5.72922 44.8785 6.83896 46.2124 6.83896C47.5461 6.83896 48.6757 5.72922 48.6757 4.29382ZM49.4454 4.29382C49.4454 6.16364 47.9965 7.57373 46.2123 7.57373C44.4281 7.57373 42.9792 6.16364 42.9792 4.29382C42.9792 2.49169 44.4438 1.01449 46.2123 1.01449C47.9798 1.01449 49.4454 2.49154 49.4454 4.29382Z" fill="white"/>
<path d="M50.1978 0.847376L54.8298 5.79594V1.14847H55.5989V7.69946L50.9677 2.7509V7.44075H50.198V0.847523L50.1978 0.847376Z" fill="white"/>
<path d="M62.4006 4.26927V4.51973C62.4006 6.24666 61.205 7.57361 59.4794 7.57361C57.7519 7.57361 56.3604 6.05506 56.3604 4.31121C56.3604 2.49966 57.7851 1.01437 59.5593 1.01437C60.5181 1.01437 61.4677 1.45674 62.0724 2.23315L61.5325 2.75866C61.0906 2.14118 60.3453 1.73193 59.5927 1.73193C58.2104 1.73193 57.1306 2.87551 57.1306 4.2856C57.1306 5.6049 58.1948 6.8562 59.5272 6.8562C60.4859 6.8562 61.515 6.01297 61.5482 4.98741H59.9525V4.26912L62.4006 4.26927Z" fill="white"/>
<path d="M69.0767 1.14814H70.0837L67.3094 3.97701L70.1334 7.44043H69.0942L66.7693 4.51135L66.4592 4.8117V7.44043H65.689V1.14814H66.4592V3.87679L69.0767 1.14814Z" fill="white"/>
<path d="M75.9454 4.29382C75.9454 2.90889 74.9288 1.74868 73.4804 1.74868C72.033 1.74868 71.0168 2.90889 71.0168 4.29382C71.0168 5.72922 72.1463 6.83896 73.4804 6.83896C74.8137 6.83896 75.9454 5.72922 75.9454 4.29382ZM76.7118 4.29382C76.7118 6.16364 75.2645 7.57373 73.4804 7.57373C71.6977 7.57373 70.248 6.16364 70.248 4.29382C70.248 2.49169 71.7135 1.01449 73.4804 1.01449C75.2483 1.01449 76.7118 2.49154 76.7118 4.29382Z" fill="white"/>
<path d="M77.4666 0.847376L82.0978 5.79594V1.14847H82.868V7.69946L78.2349 2.7509V7.44075H77.4666V0.847376Z" fill="white"/>
<path d="M89.6691 4.26927V4.51973C89.6691 6.24666 88.4746 7.57361 86.7484 7.57361C85.0194 7.57361 83.6289 6.05506 83.6289 4.31121C83.6289 2.49966 85.0528 1.01437 86.8279 1.01437C87.7866 1.01437 88.7362 1.45674 89.3418 2.23315L88.8019 2.75866C88.359 2.14118 87.6139 1.73193 86.8621 1.73193C85.4789 1.73193 84.399 2.87551 84.399 4.2856C84.399 5.6049 85.4632 6.8562 86.7956 6.8562C87.7534 6.8562 88.7843 6.01297 88.8176 4.98741H87.2219V4.26912L89.6691 4.26927Z" fill="white"/>
<path d="M22.2578 11.1598V14.8725C22.2578 15.8992 22.5606 16.8508 23.747 16.8508C24.9339 16.8508 25.2366 15.8991 25.2366 14.8725V11.1598H26.0062V15.1397C26.0062 16.5247 25.163 17.5857 23.747 17.5857C22.3315 17.5857 21.4883 16.5247 21.4883 15.1397V11.1598H22.2578Z" fill="white"/>
<path d="M27.0781 10.8589L31.7102 15.8076V11.1601H32.4793V17.7108L27.8481 12.7622V17.4518H27.0784V10.8587L27.0781 10.8589Z" fill="white"/>
<path d="M34.403 17.4519H33.6333V11.1596H34.403V17.4519Z" fill="white"/>
<path d="M37.6765 15.8159L39.5092 11.1593H40.3525L37.6765 17.7859L34.9917 11.1593H35.835L37.6765 15.8159Z" fill="white"/>
<path d="M40.958 11.1598H44.2722V11.8776H41.7277V13.6381H44.1986V14.3559H41.7277V16.7332H44.2722V17.4519H40.958V11.1598Z" fill="white"/>
<path d="M46.073 14.139H46.3185C47.1041 14.139 47.9555 13.9883 47.9555 12.9872C47.9555 12.0026 47.0385 11.8604 46.2776 11.8604H46.0733V14.139H46.073ZM49.1419 17.4519H48.2092L46.3918 14.7909H46.073V17.4519H45.3035V11.1595H46.2366C46.7849 11.1595 47.3742 11.168 47.8656 11.452C48.3805 11.7602 48.6755 12.3531 48.6755 12.9538C48.6755 13.8549 48.0858 14.6052 47.1941 14.7141L49.1419 17.4519Z" fill="white"/>
<path d="M52.5709 12.353C52.3423 11.9604 52.0479 11.7601 51.5808 11.7601C51.0894 11.7601 50.5492 12.1025 50.5492 12.6529C50.5492 13.1456 51.0249 13.4042 51.4091 13.5549L51.8509 13.7301C52.7269 14.0801 53.3808 14.5722 53.3808 15.6254C53.3808 16.7674 52.5143 17.5854 51.4091 17.5854C50.4103 17.5854 49.633 16.8342 49.5022 15.8239L50.2794 15.6574C50.2713 16.3505 50.8112 16.8505 51.4746 16.8505C52.1378 16.8505 52.6123 16.2832 52.6123 15.6253C52.6123 14.9473 52.0805 14.6571 51.5481 14.4302L51.122 14.2471C50.4189 13.9382 49.7807 13.529 49.7807 12.6525C49.7807 11.6346 50.6644 11.0255 51.5977 11.0255C52.285 11.0255 52.8496 11.3675 53.185 11.9772L52.5709 12.353Z" fill="white"/>
<path d="M55.0507 17.4519H54.281V11.1596H55.0507V17.4519Z" fill="white"/>
<path d="M57.9482 17.4519H57.1779V11.8775H55.7134V11.1596H59.4122V11.8775H57.9482V17.4519Z" fill="white"/>
<path d="M59.4612 11.1597H60.3451L61.8596 13.8464L63.3741 11.1597H64.2571L62.2442 14.7143V17.452H61.475V14.7143L59.4612 11.1597Z" fill="white"/>
<path d="M72.5802 14.3052C72.5802 12.9202 71.5669 11.7602 70.1171 11.7602C68.6678 11.7602 67.655 12.9202 67.655 14.3052C67.655 15.7409 68.783 16.8503 70.1171 16.8503C71.4522 16.8503 72.5802 15.7409 72.5802 14.3052ZM73.3503 14.3052C73.3503 16.1754 71.9025 17.5851 70.1171 17.5851C68.3327 17.5851 66.8848 16.1754 66.8848 14.3052C66.8848 12.5032 68.3498 11.0258 70.1171 11.0258C71.8867 11.026 73.3503 12.5032 73.3503 14.3052Z" fill="white"/>
<path d="M74.9387 11.8774V13.6461H77.0818V14.3643H74.9387V17.4515H74.1685V11.1592H77.1562V11.8774H74.9387Z" fill="white"/>
<path d="M83.3251 12.353C83.0981 11.9604 82.8022 11.7601 82.3362 11.7601C81.8452 11.7601 81.3053 12.1025 81.3053 12.6529C81.3053 13.1456 81.7796 13.4042 82.1647 13.5549L82.6062 13.7301C83.4818 14.0801 84.1364 14.5722 84.1364 15.6254C84.1364 16.7674 83.2692 17.5854 82.1647 17.5854C81.1643 17.5854 80.3882 16.8342 80.2568 15.8239L81.0353 15.6574C81.0269 16.3505 81.567 16.8505 82.2284 16.8505C82.8936 16.8505 83.3661 16.2832 83.3661 15.6253C83.3661 14.9473 82.8363 14.6571 82.3018 14.4302L81.8774 14.2471C81.1738 13.9382 80.5349 13.529 80.5349 12.6525C80.5349 11.6346 81.4198 11.0255 82.3535 11.0255C83.0405 11.0255 83.6045 11.3675 83.94 11.9772L83.3251 12.353Z" fill="white"/>
<path d="M89.5543 12.3614C89.1124 11.9604 88.5058 11.7439 87.9257 11.7439C86.543 11.7439 85.4852 12.92 85.4852 14.3142C85.4852 15.69 86.5337 16.8672 87.9076 16.8672C88.5151 16.8672 89.0952 16.6338 89.5543 16.2166V17.1435C89.0791 17.4273 88.474 17.5854 87.9335 17.5854C86.1741 17.5854 84.7188 16.158 84.7188 14.3389C84.7188 12.4774 86.1819 11.0256 87.9991 11.0256C88.539 11.0256 89.0873 11.1589 89.5543 11.4518V12.3614Z" fill="white"/>
<path d="M91.2976 17.4519H90.5288V11.1596H91.2976V17.4519Z" fill="white"/>
<path d="M92.533 11.1598H95.8471V11.8776H93.3032V13.6381H95.7732V14.3559H93.3032V16.7332H95.8471V17.4519H92.533V11.1598Z" fill="white"/>
<path d="M96.8059 10.8589L101.437 15.8076V11.1601H102.207V17.7108L97.5743 12.7622V17.4518H96.8059V10.8589Z" fill="white"/>
<path d="M107.877 12.3614C107.436 11.9604 106.83 11.7439 106.25 11.7439C104.866 11.7439 103.81 12.92 103.81 14.3142C103.81 15.69 104.857 16.8672 106.233 16.8672C106.838 16.8672 107.42 16.6338 107.877 16.2166V17.1435C107.404 17.4273 106.797 17.5854 106.257 17.5854C104.499 17.5854 103.042 16.158 103.042 14.3389C103.042 12.4774 104.505 11.0256 106.323 11.0256C106.864 11.0256 107.411 11.1589 107.877 11.4518V12.3614H107.877Z" fill="white"/>
<path d="M108.876 11.1598H112.192V11.8776H109.645V13.6381H112.118V14.3559H109.645V16.7332H112.192V17.4519H108.876V11.1598Z" fill="white"/>
<path d="M23.8862 22.6219L22.7899 25.1675H24.9834L23.8862 22.6219ZM22.4701 25.8858L21.7673 27.4634H20.9402L23.8862 20.9044L26.8328 27.4634H26.006L25.3024 25.8858H22.4701Z" fill="white"/>
<path d="M27.3564 20.8705L31.9885 25.8191V21.172H32.7576V27.7223L28.1262 22.7737V27.4633H27.3567V20.8705H27.3564Z" fill="white"/>
<path d="M34.6403 26.7451H34.9103C36.4818 26.7451 37.8406 26.1453 37.8406 24.3176C37.8406 22.482 36.4821 21.8891 34.9103 21.8891H34.6403V26.7451ZM33.8708 21.1716H35.1475C37.0381 21.1716 38.6096 22.189 38.6096 24.284C38.6096 26.4289 37.0709 27.4633 35.123 27.4633H33.8706V21.1716H33.8708Z" fill="white"/>
<path d="M43.5683 27.4634H42.7998V21.8889H41.3345V21.1715H45.034V21.8889H43.5683V27.4634Z" fill="white"/>
<path d="M45.7209 21.1716H49.0351V21.889H46.4906V23.6486H48.9615V24.3673H46.4906V26.745H49.0351V27.4633H45.7209V21.1716Z" fill="white"/>
<path d="M54.5596 22.3731C54.1177 21.9718 53.5123 21.7555 52.9314 21.7555C51.5478 21.7555 50.4924 22.9322 50.4924 24.3267C50.4924 25.7021 51.5399 26.8788 52.9145 26.8788C53.52 26.8788 54.1017 26.6454 54.5596 26.229V27.156C54.0851 27.4387 53.4795 27.597 52.9391 27.597C51.1798 27.597 49.7229 26.1696 49.7229 24.3497C49.7229 22.4885 51.1875 21.0385 53.0044 21.0385C53.5451 21.0385 54.0932 21.1722 54.5596 21.4635V22.3731Z" fill="white"/>
<path d="M59.2011 23.7071V21.1715H59.968V27.4634H59.2011V24.4419H56.2621V27.4634H55.4929V21.1715H56.2621V23.7071H59.2011Z" fill="white"/>
<path d="M61.09 20.8705L65.7225 25.8191V21.172H66.4909V27.7223L61.8601 22.7737V27.4633H61.0898V20.8705H61.09Z" fill="white"/>
<path d="M72.9333 24.3167C72.9333 22.9322 71.9181 21.772 70.4683 21.772C69.0209 21.772 68.0062 22.9322 68.0062 24.3167C68.0062 25.7524 69.1342 26.8623 70.4683 26.8623C71.8035 26.8623 72.9333 25.7524 72.9333 24.3167ZM73.7016 24.3167C73.7016 26.1875 72.2538 27.597 70.4684 27.597C68.6858 27.597 67.2361 26.187 67.2361 24.3167C67.2361 22.515 68.7015 21.0381 70.4684 21.0381C72.2381 21.0381 73.7016 22.515 73.7016 24.3167Z" fill="white"/>
<path d="M75.2983 26.7451H77.1729V27.4634H74.5295V21.1715H75.2983V26.7451Z" fill="white"/>
<path d="M83.0233 24.3167C83.0233 22.9322 82.0086 21.772 80.5602 21.772C79.111 21.772 78.0962 22.9322 78.0962 24.3167C78.0962 25.7524 79.2261 26.8623 80.5602 26.8623C81.8934 26.8623 83.0233 25.7524 83.0233 24.3167ZM83.7917 24.3167C83.7917 26.1875 82.3437 27.597 80.5602 27.597C78.7771 27.597 77.3279 26.187 77.3279 24.3167C77.3279 22.515 78.7929 21.0381 80.5602 21.0381C82.328 21.0381 83.7917 22.515 83.7917 24.3167Z" fill="white"/>
<path d="M90.2414 24.2924V24.5417C90.2414 26.2692 89.0458 27.597 87.3206 27.597C85.594 27.597 84.2012 26.0781 84.2012 24.3332C84.2012 22.5232 85.6259 21.0381 87.4016 21.0381C88.359 21.0381 89.3081 21.48 89.9151 22.2573L89.3752 22.7821C88.9333 22.1645 88.1861 21.7549 87.4349 21.7549C86.0514 21.7549 84.9714 22.8992 84.9714 24.3083C84.9714 25.6269 86.0356 26.8782 87.3678 26.8782C88.3266 26.8782 89.3576 26.0358 89.3908 25.011H87.795V24.2923H90.2414V24.2924Z" fill="white"/>
<path d="M90.4456 21.1717H91.3308L92.843 23.8573L94.3575 21.1717H95.2432L93.2295 24.7266V27.4635H92.4593V24.7266L90.4456 21.1717Z" fill="white"/>
<path d="M12.3635 5.7218C12.491 5.5589 12.5359 5.26914 12.5359 5.26914H4.88135C4.88135 5.26914 4.97588 5.59171 5.05612 5.7218H12.3635Z" fill="white"/>
<path d="M11.9194 6.38525C12.0618 6.25664 12.2053 5.99587 12.2053 5.99587H5.19824C5.19824 5.99587 5.27632 6.191 5.45253 6.38525H11.9194Z" fill="white"/>
<path d="M11.3663 6.98328C11.5404 6.88851 11.6811 6.69205 11.6811 6.69205H5.68848C5.68848 6.69205 5.83207 6.85333 5.97279 6.98328H11.3663Z" fill="white"/>
<path d="M10.6681 7.55029C10.8391 7.48348 11.0324 7.32219 11.0324 7.32219H6.35669C6.35669 7.32219 6.35669 7.35766 6.68891 7.55029H10.6681Z" fill="white"/>
<path d="M7.22583 7.90415C7.22583 7.90415 7.71796 8.19714 8.68476 8.19714C9.653 8.19714 10.27 7.90415 10.27 7.90415H7.22583Z" fill="white"/>
<path d="M7.14763 8.56736C7.14763 8.56736 7.734 8.59988 8.08282 8.8736C8.41504 9.16689 8.67064 9.64914 8.67064 9.64914C8.67064 9.64914 8.87514 9.18293 9.20895 8.94041C9.54348 8.67965 10.0818 8.56736 10.0818 8.56736H16.1223L17.3115 10.3633H11.8872C11.8872 10.3633 11.507 10.3793 10.9367 10.7197C10.6351 10.8946 10.4126 11.2036 10.4126 11.2036C10.4126 11.2036 10.3677 11.3488 10.3007 11.4289C10.2385 11.5101 10.1905 11.5753 10.1125 11.6064C10.0323 11.6402 10.0483 11.6208 10.0483 11.6208H7.22614C7.22614 11.6208 7.1127 11.5753 7.05324 11.4755C6.98945 11.3799 7.03592 11.4121 6.97372 11.3344C6.92566 11.2525 6.81382 11.0407 6.38576 10.7509C5.9427 10.4572 5.51277 10.4284 5.51277 10.4284H-0.000244141L1.20165 8.56736H7.14763Z" fill="white"/>
<path d="M2.88086 11.1056V20.2852C2.88086 20.2852 2.91304 21.0964 3.57908 22.1954C4.2454 23.2935 5.21206 23.7953 5.21206 23.7953L5.97277 22.5828C5.97277 22.5828 5.30774 22.1789 4.79988 21.4029C4.3089 20.6278 4.3089 19.9626 4.3089 19.9626V11.1055L2.88086 11.1056Z" fill="white"/>
<path d="M13.0925 11.0732V19.9297C13.0925 19.9297 12.9822 20.8201 12.5699 21.4524C12.1576 22.0976 11.4736 22.6154 11.4736 22.6154L12.2056 23.8114C12.2056 23.8114 13.3144 22.987 13.8543 22.1136C14.3918 21.2402 14.5225 19.9299 14.5225 19.9299V11.0735H13.0925V11.0732Z" fill="white"/>
<path d="M0.616211 11.1057V20.3215C0.616211 20.3215 0.709153 21.7452 1.58171 23.2313C2.45571 24.7173 4.03904 25.754 4.03904 25.754L4.7859 24.5416C4.7859 24.5416 3.77075 23.9912 2.96242 22.7297C2.13446 21.4519 2.08957 20.2853 2.08957 20.2853V11.1054H0.616211V11.1057Z" fill="white"/>
<path d="M7.14769 12.0757V21.8076C7.14769 21.8076 7.11277 21.8405 7.10165 21.9833C7.0839 22.1306 6.9898 22.2276 6.9898 22.2276L3.80322 27.6116H13.5699L10.3822 22.1135L10.2881 21.8697L10.2558 21.6117V12.0931H9.06743V21.9705C9.06743 21.9705 9.06743 22.1137 9.11477 22.2276C9.14349 22.3419 9.20887 22.5181 9.20887 22.5181L11.1731 25.8164H6.19532L8.13065 22.5341C8.13065 22.5341 8.19444 22.4234 8.24236 22.2605C8.27396 22.1137 8.28724 21.9705 8.28724 21.9705V12.0757H7.14769Z" fill="white"/>
<path d="M15.2958 11.0732V20.1256C15.2958 20.1256 15.2834 21.2895 14.4413 22.6319C13.6022 23.9747 12.6335 24.5416 12.6335 24.5416L13.3481 25.7668C13.3481 25.7668 14.8043 24.8285 15.726 23.3419C16.6285 21.8559 16.7403 20.1256 16.7403 20.1256V11.0732H15.2958Z" fill="white"/>
<path d="M4.83204 5.01001C4.83204 5.01001 4.34338 2.28062 6.30699 0.918653C6.30699 0.918653 7.19557 0.0808692 8.63732 0.0808692C10.1761 0.0808692 11.0629 0.903496 11.0629 0.903496C13.2027 2.5021 12.57 5.01001 12.57 5.01001H4.83204Z" fill="white"/>
</g>
</svg>
