<svg width="148" height="17" viewBox="0 0 148 17" fill="none" xmlns="http://www.w3.org/2000/svg">
<g clip-path="url(#clip0_1458_185)">
<path d="M2.77284 5.90742C3.72712 5.90742 4.46736 5.65249 4.99357 5.14263C5.51979 4.63278 5.78289 3.91435 5.78289 2.98734C5.78289 2.06579 5.51979 1.35144 4.99357 0.844317C4.46736 0.337189 3.72712 0.0836251 2.77284 0.0836251H0.62982V5.90742H2.77284ZM2.70741 5.04857H1.68497V0.942471H2.70741C4.04884 0.942471 4.71956 1.62409 4.71956 2.98734C4.71956 4.36149 4.04884 5.04857 2.70741 5.04857ZM7.96886 5.90742V0.0836251H6.91371V5.90742H7.96886ZM12.0279 5.90742L14.6208 0.0836251H13.5493L11.6108 4.58234L9.67224 0.0836251H8.57619L11.1691 5.90742H12.0279ZM16.2833 5.90742V0.0836251H15.2281V5.90742H16.2833ZM19.5653 5.98103C20.0397 5.98103 20.4514 5.91014 20.8004 5.76836C21.1494 5.62659 21.4166 5.42619 21.602 5.16717C21.7874 4.90816 21.8801 4.60415 21.8801 4.25516C21.8801 3.93889 21.7983 3.67578 21.6347 3.46584C21.4711 3.2559 21.2367 3.08413 20.9313 2.95053C20.6259 2.81694 20.2306 2.69288 19.7453 2.57837C19.2763 2.47476 18.945 2.36297 18.7515 2.24301C18.5579 2.12304 18.4611 1.94855 18.4611 1.71952C18.4611 1.45232 18.5701 1.24102 18.7883 1.08561C19.0064 0.930201 19.3036 0.852496 19.6798 0.852496C20.3069 0.852496 20.8795 1.05971 21.3975 1.47414L21.7492 0.705266C21.5148 0.487146 21.2135 0.31674 20.8454 0.194048C20.4773 0.0713559 20.0888 0.0100098 19.6798 0.0100098C19.2327 0.0100098 18.8387 0.0863516 18.4979 0.239035C18.1571 0.391719 17.894 0.601659 17.7086 0.868855C17.5232 1.13605 17.4305 1.44142 17.4305 1.78496C17.4305 2.26482 17.5968 2.63017 17.9294 2.88101C18.2621 3.13185 18.7937 3.33633 19.5244 3.49447C19.9934 3.59808 20.3301 3.7085 20.5346 3.82574C20.7391 3.94298 20.8413 4.11066 20.8413 4.32878C20.8413 4.58507 20.7309 4.7841 20.51 4.92588C20.2892 5.06766 19.977 5.13854 19.5735 5.13854C19.2081 5.13854 18.8714 5.0881 18.5633 4.98722C18.2552 4.88634 17.9594 4.72957 17.6759 4.5169L17.316 5.28578C17.5886 5.50935 17.9199 5.68112 18.3098 5.80108C18.6997 5.92105 19.1182 5.98103 19.5653 5.98103ZM23.9679 5.90742V0.0836251H22.9128V5.90742H23.9679ZM27.8634 5.98103C28.4305 5.98103 28.9213 5.8597 29.3357 5.61704C29.7501 5.37439 30.0691 5.02812 30.2927 4.57825C30.5163 4.12838 30.6281 3.59808 30.6281 2.98734C30.6281 2.38206 30.5176 1.85448 30.2968 1.40461C30.0759 0.95474 29.757 0.609838 29.3398 0.369907C28.9226 0.129975 28.4305 0.0100098 27.8634 0.0100098C27.2963 0.0100098 26.8042 0.129975 26.387 0.369907C25.9699 0.609838 25.6495 0.95474 25.4259 1.40461C25.2023 1.85448 25.0906 2.38206 25.0906 2.98734C25.0906 3.59808 25.2037 4.12838 25.43 4.57825C25.6563 5.02812 25.978 5.37439 26.3952 5.61704C26.8123 5.8597 27.3017 5.98103 27.8634 5.98103ZM27.8634 5.13854C27.3236 5.13854 26.9037 4.95314 26.6038 4.58234C26.3038 4.21154 26.1539 3.67987 26.1539 2.98734C26.1539 2.29481 26.3038 1.76587 26.6038 1.40052C26.9037 1.03517 27.3236 0.852496 27.8634 0.852496C28.4032 0.852496 28.8231 1.03653 29.123 1.40461C29.423 1.77269 29.5729 2.30026 29.5729 2.98734C29.5729 3.67987 29.423 4.21154 29.123 4.58234C28.8231 4.95314 28.4032 5.13854 27.8634 5.13854ZM32.7404 5.90742V1.82585L35.8813 5.90742H36.6666V0.0836251H35.6768V4.15701L32.5441 0.0836251H31.7589V5.90742H32.7404ZM42.8625 5.98103C43.4296 5.98103 43.9204 5.8597 44.3348 5.61704C44.7493 5.37439 45.0683 5.02812 45.2918 4.57825C45.5154 4.12838 45.6272 3.59808 45.6272 2.98734C45.6272 2.38206 45.5168 1.85448 45.2959 1.40461C45.0751 0.95474 44.7561 0.609838 44.3389 0.369907C43.9218 0.129975 43.4296 0.0100098 42.8625 0.0100098C42.2954 0.0100098 41.8033 0.129975 41.3861 0.369907C40.969 0.609838 40.6486 0.95474 40.425 1.40461C40.2015 1.85448 40.0897 2.38206 40.0897 2.98734C40.0897 3.59808 40.2028 4.12838 40.4291 4.57825C40.6554 5.02812 40.9772 5.37439 41.3943 5.61704C41.8115 5.8597 42.3009 5.98103 42.8625 5.98103ZM42.8625 5.13854C42.3227 5.13854 41.9028 4.95314 41.6029 4.58234C41.303 4.21154 41.153 3.67987 41.153 2.98734C41.153 2.29481 41.303 1.76587 41.6029 1.40052C41.9028 1.03517 42.3227 0.852496 42.8625 0.852496C43.4024 0.852496 43.8222 1.03653 44.1222 1.40461C44.4221 1.77269 44.572 2.30026 44.572 2.98734C44.572 3.67987 44.4221 4.21154 44.1222 4.58234C43.8222 4.95314 43.4024 5.13854 42.8625 5.13854ZM47.805 5.90742V3.37178H50.3979V2.52111H47.805V0.926112H50.5615V0.0836251H46.758V5.90742H47.805ZM54.8352 5.90742V0.0836251H53.7801V5.90742H54.8352ZM57.1275 5.90742V1.82585L60.2685 5.90742H61.0537V0.0836251H60.064V4.15701L56.9312 0.0836251H56.146V5.90742H57.1275ZM64.8019 5.90742V0.95065H66.7078V0.0836251H61.841V0.95065H63.7386V5.90742H64.8019ZM71.3803 5.90742V5.07311H68.5175V3.3636H71.2085V2.52929H68.5175V0.917932H71.3803V0.0836251H67.4869V5.90742H71.3803ZM75.1285 5.98103C75.5211 5.98103 75.9056 5.94286 76.2818 5.86652C76.6581 5.79018 76.9798 5.68657 77.247 5.5557V2.75832H75.0386V3.51901H76.2982V4.99131C75.9274 5.09492 75.5511 5.14672 75.1694 5.14672C74.5423 5.14672 74.0706 4.96541 73.7544 4.60279C73.4381 4.24016 73.28 3.70168 73.28 2.98734C73.28 2.29481 73.434 1.7686 73.7421 1.4087C74.0502 1.0488 74.5042 0.868855 75.104 0.868855C75.4148 0.868855 75.7011 0.915206 75.9628 1.00791C76.2246 1.10061 76.4918 1.25329 76.7644 1.46596L77.1243 0.697086C76.8844 0.478967 76.5858 0.309924 76.2287 0.189958C75.8715 0.0699926 75.4884 0.0100098 75.0795 0.0100098C74.496 0.0100098 73.9875 0.129975 73.554 0.369907C73.1205 0.609838 72.7865 0.953377 72.552 1.40052C72.3175 1.84767 72.2003 2.37661 72.2003 2.98734C72.2003 3.60898 72.3175 4.14337 72.552 4.59052C72.7865 5.03766 73.1246 5.3812 73.5662 5.62113C74.0079 5.86106 74.5287 5.98103 75.1285 5.98103ZM79.5311 5.90742V3.48629H80.5863C80.8044 3.48629 80.9816 3.52173 81.118 3.59262C81.2543 3.66351 81.3552 3.78893 81.4206 3.96888L82.1649 5.90742H83.2773L82.5657 4.04249C82.413 3.63352 82.1649 3.39359 81.8214 3.3227C82.1976 3.20819 82.488 3.01597 82.6925 2.74605C82.897 2.47612 82.9992 2.14758 82.9992 1.76042C82.9992 1.22057 82.8275 0.806146 82.4839 0.517138C82.1404 0.228129 81.6387 0.0836251 80.9789 0.0836251H78.4842V5.90742H79.5311ZM80.8317 2.66834H79.5148V0.901573H80.8317C81.2352 0.901573 81.531 0.973825 81.7191 1.11833C81.9073 1.26283 82.0013 1.48232 82.0013 1.77678C82.0013 2.07669 81.9059 2.30026 81.715 2.4475C81.5242 2.59473 81.2297 2.66834 80.8317 2.66834ZM84.6372 5.90742L85.2261 4.54144H88.0726L88.6533 5.90742H89.7085L87.0665 0.0836251H86.2076L83.5738 5.90742H84.6372ZM87.7208 3.72349H85.5778L86.6493 1.22875L87.7208 3.72349ZM92.0989 5.90742V0.95065H94.0047V0.0836251H89.1379V0.95065H91.0356V5.90742H92.0989ZM95.839 5.90742V0.0836251H94.7838V5.90742H95.839ZM99.898 5.90742L102.491 0.0836251H101.419L99.4809 4.58234L97.5424 0.0836251H96.4463L99.0392 5.90742H99.898ZM106.992 5.90742V5.07311H104.129V3.3636H106.82V2.52929H104.129V0.917932H106.992V0.0836251H103.098V5.90742H106.992ZM112.28 5.98103C112.754 5.98103 113.166 5.91014 113.515 5.76836C113.864 5.62659 114.131 5.42619 114.316 5.16717C114.502 4.90816 114.595 4.60415 114.595 4.25516C114.595 3.93889 114.513 3.67578 114.349 3.46584C114.186 3.2559 113.951 3.08413 113.646 2.95053C113.34 2.81694 112.945 2.69288 112.46 2.57837C111.991 2.47476 111.659 2.36297 111.466 2.24301C111.272 2.12304 111.176 1.94855 111.176 1.71952C111.176 1.45232 111.285 1.24102 111.503 1.08561C111.721 0.930201 112.018 0.852496 112.394 0.852496C113.021 0.852496 113.594 1.05971 114.112 1.47414L114.464 0.705266C114.229 0.487146 113.928 0.31674 113.56 0.194048C113.192 0.0713559 112.803 0.0100098 112.394 0.0100098C111.947 0.0100098 111.553 0.0863516 111.212 0.239035C110.871 0.391719 110.608 0.601659 110.423 0.868855C110.238 1.13605 110.145 1.44142 110.145 1.78496C110.145 2.26482 110.311 2.63017 110.644 2.88101C110.976 3.13185 111.508 3.33633 112.239 3.49447C112.708 3.59808 113.045 3.7085 113.249 3.82574C113.453 3.94298 113.556 4.11066 113.556 4.32878C113.556 4.58507 113.445 4.7841 113.224 4.92588C113.004 5.06766 112.691 5.13854 112.288 5.13854C111.923 5.13854 111.586 5.0881 111.278 4.98722C110.97 4.88634 110.674 4.72957 110.39 4.5169L110.03 5.28578C110.303 5.50935 110.634 5.68112 111.024 5.80108C111.414 5.92105 111.833 5.98103 112.28 5.98103ZM117.942 5.90742V3.6008L120.306 0.0836251H119.103L117.41 2.71742L115.725 0.0836251H114.523L116.887 3.6008V5.90742H117.942ZM122.459 5.98103C122.934 5.98103 123.345 5.91014 123.694 5.76836C124.043 5.62659 124.31 5.42619 124.496 5.16717C124.681 4.90816 124.774 4.60415 124.774 4.25516C124.774 3.93889 124.692 3.67578 124.528 3.46584C124.365 3.2559 124.13 3.08413 123.825 2.95053C123.52 2.81694 123.124 2.69288 122.639 2.57837C122.17 2.47476 121.839 2.36297 121.645 2.24301C121.452 2.12304 121.355 1.94855 121.355 1.71952C121.355 1.45232 121.464 1.24102 121.682 1.08561C121.9 0.930201 122.197 0.852496 122.574 0.852496C123.201 0.852496 123.773 1.05971 124.291 1.47414L124.643 0.705266C124.409 0.487146 124.107 0.31674 123.739 0.194048C123.371 0.0713559 122.983 0.0100098 122.574 0.0100098C122.126 0.0100098 121.732 0.0863516 121.392 0.239035C121.051 0.391719 120.788 0.601659 120.602 0.868855C120.417 1.13605 120.324 1.44142 120.324 1.78496C120.324 2.26482 120.491 2.63017 120.823 2.88101C121.156 3.13185 121.688 3.33633 122.418 3.49447C122.887 3.59808 123.224 3.7085 123.428 3.82574C123.633 3.94298 123.735 4.11066 123.735 4.32878C123.735 4.58507 123.625 4.7841 123.404 4.92588C123.183 5.06766 122.871 5.13854 122.467 5.13854C122.102 5.13854 121.765 5.0881 121.457 4.98722C121.149 4.88634 120.853 4.72957 120.57 4.5169L120.21 5.28578C120.482 5.50935 120.814 5.68112 121.204 5.80108C121.593 5.92105 122.012 5.98103 122.459 5.98103ZM128.113 5.90742V0.95065H130.019V0.0836251H125.152V0.95065H127.05V5.90742H128.113ZM134.692 5.90742V5.07311H131.829V3.3636H134.52V2.52929H131.829V0.917932H134.692V0.0836251H130.798V5.90742H134.692ZM136.665 5.90742V2.33298L138.219 5.90742H138.914L140.46 2.29209V5.90742H141.393V0.0836251H140.558L138.571 4.6396L136.567 0.0836251H135.732V5.90742H136.665ZM144.691 5.98103C145.165 5.98103 145.577 5.91014 145.926 5.76836C146.275 5.62659 146.542 5.42619 146.728 5.16717C146.913 4.90816 147.006 4.60415 147.006 4.25516C147.006 3.93889 146.924 3.67578 146.76 3.46584C146.597 3.2559 146.362 3.08413 146.057 2.95053C145.752 2.81694 145.356 2.69288 144.871 2.57837C144.402 2.47476 144.071 2.36297 143.877 2.24301C143.683 2.12304 143.587 1.94855 143.587 1.71952C143.587 1.45232 143.696 1.24102 143.914 1.08561C144.132 0.930201 144.429 0.852496 144.805 0.852496C145.433 0.852496 146.005 1.05971 146.523 1.47414L146.875 0.705266C146.64 0.487146 146.339 0.31674 145.971 0.194048C145.603 0.0713559 145.214 0.0100098 144.805 0.0100098C144.358 0.0100098 143.964 0.0863516 143.624 0.239035C143.283 0.391719 143.02 0.601659 142.834 0.868855C142.649 1.13605 142.556 1.44142 142.556 1.78496C142.556 2.26482 142.722 2.63017 143.055 2.88101C143.388 3.13185 143.919 3.33633 144.65 3.49447C145.119 3.59808 145.456 3.7085 145.66 3.82574C145.865 3.94298 145.967 4.11066 145.967 4.32878C145.967 4.58507 145.856 4.7841 145.636 4.92588C145.415 5.06766 145.103 5.13854 144.699 5.13854C144.334 5.13854 143.997 5.0881 143.689 4.98722C143.381 4.88634 143.085 4.72957 142.801 4.5169L142.442 5.28578C142.714 5.50935 143.045 5.68112 143.435 5.80108C143.825 5.92105 144.244 5.98103 144.691 5.98103ZM1.06333 16.359L1.65226 14.993H4.49871L5.07946 16.359H6.13461L3.49264 10.5352H2.63379L0 16.359H1.06333ZM4.147 14.1751H2.00397L3.07548 11.6803L4.147 14.1751ZM7.79709 16.359V12.2774L10.938 16.359H11.7232V10.5352H10.7335V14.6086L7.60078 10.5352H6.81555V16.359H7.79709ZM15.1852 16.359C16.1395 16.359 16.8797 16.104 17.4059 15.5942C17.9321 15.0843 18.1953 14.3659 18.1953 13.4389C18.1953 12.5173 17.9321 11.803 17.4059 11.2959C16.8797 10.7887 16.1395 10.5352 15.1852 10.5352H13.0422V16.359H15.1852ZM15.1198 15.5001H14.0973V11.394H15.1198C16.4612 11.394 17.1319 12.0757 17.1319 13.4389C17.1319 14.8131 16.4612 15.5001 15.1198 15.5001ZM23.7614 16.359C24.7157 16.359 25.4559 16.104 25.9821 15.5942C26.5083 15.0843 26.7714 14.3659 26.7714 13.4389C26.7714 12.5173 26.5083 11.803 25.9821 11.2959C25.4559 10.7887 24.7157 10.5352 23.7614 10.5352H21.6184V16.359H23.7614ZM23.696 15.5001H22.6735V11.394H23.696C25.0374 11.394 25.7081 12.0757 25.7081 13.4389C25.7081 14.8131 25.0374 15.5001 23.696 15.5001ZM31.7957 16.359V15.5247H28.9329V13.8152H31.6239V12.9808H28.9329V11.3695H31.7957V10.5352H27.9023V16.359H31.7957ZM34.7096 16.4326C35.184 16.4326 35.5957 16.3617 35.9447 16.2199C36.2937 16.0781 36.5609 15.8777 36.7463 15.6187C36.9317 15.3597 37.0244 15.0557 37.0244 14.7067C37.0244 14.3904 36.9426 14.1273 36.779 13.9174C36.6154 13.7075 36.381 13.5357 36.0756 13.4021C35.7702 13.2685 35.3749 13.1444 34.8896 13.0299C34.4206 12.9263 34.0894 12.8145 33.8958 12.6946C33.7022 12.5746 33.6054 12.4001 33.6054 12.1711C33.6054 11.9039 33.7145 11.6926 33.9326 11.5372C34.1507 11.3818 34.4479 11.3041 34.8241 11.3041C35.4512 11.3041 36.0238 11.5113 36.5418 11.9257L36.8935 11.1568C36.6591 10.9387 36.3578 10.7683 35.9897 10.6456C35.6216 10.5229 35.2331 10.4616 34.8241 10.4616C34.377 10.4616 33.983 10.5379 33.6422 10.6906C33.3014 10.8433 33.0383 11.0532 32.8529 11.3204C32.6675 11.5876 32.5748 11.893 32.5748 12.2365C32.5748 12.7164 32.7411 13.0817 33.0737 13.3326C33.4064 13.5834 33.938 13.7879 34.6687 13.946C35.1377 14.0496 35.4744 14.1601 35.6789 14.2773C35.8834 14.3945 35.9856 14.5622 35.9856 14.7803C35.9856 15.0366 35.8752 15.2357 35.6544 15.3774C35.4335 15.5192 35.1213 15.5901 34.7178 15.5901C34.3525 15.5901 34.0157 15.5397 33.7076 15.4388C33.3995 15.3379 33.1037 15.1811 32.8202 14.9685L32.4603 15.7373C32.7329 15.9609 33.0642 16.1327 33.4541 16.2526C33.844 16.3726 34.2625 16.4326 34.7096 16.4326ZM39.1122 16.359V10.5352H38.0571V16.359H39.1122ZM43.1631 16.4326C43.5557 16.4326 43.9402 16.3944 44.3164 16.3181C44.6927 16.2417 45.0144 16.1381 45.2816 16.0073V13.2099H43.0731V13.9706H44.3328V15.4429C43.962 15.5465 43.5857 15.5983 43.204 15.5983C42.5769 15.5983 42.1052 15.417 41.789 15.0543C41.4727 14.6917 41.3146 14.1532 41.3146 13.4389C41.3146 12.7464 41.4686 12.2202 41.7767 11.8603C42.0848 11.5004 42.5388 11.3204 43.1386 11.3204C43.4494 11.3204 43.7357 11.3668 43.9974 11.4595C44.2592 11.5522 44.5264 11.7049 44.799 11.9175L45.1589 11.1486C44.919 10.9305 44.6204 10.7615 44.2633 10.6415C43.9061 10.5216 43.523 10.4616 43.114 10.4616C42.5306 10.4616 42.0221 10.5815 41.5886 10.8215C41.1551 11.0614 40.8211 11.4049 40.5866 11.8521C40.3521 12.2992 40.2349 12.8282 40.2349 13.4389C40.2349 14.0605 40.3521 14.5949 40.5866 15.0421C40.8211 15.4892 41.1591 15.8328 41.6008 16.0727C42.0425 16.3126 42.5633 16.4326 43.1631 16.4326ZM47.5003 16.359V12.2774L50.6412 16.359H51.4264V10.5352H50.4367V14.6086L47.304 10.5352H46.5187V16.359H47.5003Z" fill="#003874"/>
</g>
<defs>
<clipPath id="clip0_1458_185">
<rect width="147.231" height="16.8134" fill="white"/>
</clipPath>
</defs>
</svg>
